<svg xmlns="http://www.w3.org/2000/svg" id="flag-icons-sa" viewBox="0 0 512 512">
  <defs>
    <clipPath id="sa-a">
      <path fill-opacity=".7" d="M124 0h496v496H124z"/>
    </clipPath>
  </defs>
  <g fill-rule="evenodd" clip-path="url(#sa-a)" transform="translate(-128)scale(1.0321)">
    <path fill="#165d31" d="M0 0h744v496H0z"/>
    <path fill="#fff" d="M187.5 140.6c-.8 11.6-1.9 32 8 34.1 11.9 1.1 5.3-20.2 9.6-24 .9-2 2.4-2 2.5.5v18c-.1 6 3.7 7.6 6.7 8.9 3.2-.3 5.2-.2 6.5 2.8l1.4 31.3s7.3 2 7.6-17.6c.4-11.5-2.3-21.2-.7-23.4 0-2.2 2.8-2.3 4.8-1.3 3.1 2.2 4.5 5 9.3 3.8 7.4-2 11.8-5.6 12-11.2a51 51 0 0 0-3.4-16.1c.3-1-1.5-3.5-1.1-4.5 1.3 2 3.3 1.9 3.8 0-1.3-4.2-3.2-8.1-6.4-9.8-2.6-2.3-6.4-1.8-7.8 3a26 26 0 0 0 6 17.3 17 17 0 0 1 1.5 8.7q-3.2 1.8-6-1.1s-5.9-4.5-5.9-5.4c1.6-10 .4-11.1-.5-13.9-.6-3.8-2.4-5-3.9-7.6-1.5-1.6-3.4-1.6-4.4 0-2.6 4.5-1.4 14.1.5 18.4 1.4 4 3.4 6.5 2.4 6.5-.8 2.2-2.4 1.7-3.6-.9a61 61 0 0 1-2.1-16.9c-.5-4.5-1-14-4-16.4-1.8-2.4-4.5-1.2-5.4 1a80 80 0 0 0 .3 13c2 7 2.6 13.4 3.6 20.7.3 9.8-5.7 4.3-5.4-.6 1.4-6.3 1-16.3-.2-18.8-1-2.5-2.1-3.1-4.4-2.7-2-.2-6.7 5-8 13.8 0 0-1.2 4.5-1.7 8.4-.7 4.5-3.6 7.7-5.7-.6-1.8-6-2.9-20.9-5.9-17.4"/>
    <path fill="#fff" d="m219.9 188.2-31 14.9c.3-7 14.7-19.8 24.5-20 6.4.2 4.8 2.5 6.5 5z"/>
    <path fill="#fff" d="M214.5 197.9c-16.4 42.1 38.2 48 44.3 1.7.6-1.9 3-3.8 3.3-.7-1.3 42-42.2 44.8-49.2 31.6-1.7-3-2.2-10-2.4-14.2-1-8.2-5.4-5-6 3.2-.7 4.5-.6 5.8-.6 10.2 2.2 33 55 18.8 63.6-8.5 4.5-15.1-.8-26.3 1.7-26.3 5.2 5.7 12.6.8 14.2-1.2.7-1 2.4-1.6 3.6-.3 4 3 11.3 1.5 12.8-3.6q1.3-7.6 1.7-15.7c-3.3 1-5.8 1.7-6 3l-.7 4.6c-.3 1.4-3.2 1.5-3.3-.4-1.3-5.7-6.5-6.5-9.7 2.4-2.1 1.8-6 2-6.4-.5.5-6-1.9-6.8-6.7-4l-4.7-35c2 0 3.9 1.4 5.7-.9-2-6.3-6.3-19-8.6-20-1.2-1.4-2.1-.5-3.6-.2-2.6.8-5 3-4.2 7.3l8 50.2c.4 2.1-1.4 5-3.7 4.7-3.9-2.7-4.9-8-11.5-7.8-4.9 0-10.4 5.3-11 10.4-.9 4-1.2 8.4 0 11.9 3.3 4 7.4 3.7 11 2.7 2.9-1.2 5.3-4.1 6.4-3.4.7.9.1 10.5-13.9 18-8.4 3.8-15.2 4.6-18.8-2.3-2.2-4.3.2-20.7-5.3-17z"/>
    <path fill="#fff" d="M283.8 155c3.3-1.1 18.8-19 18.8-19l-2.3-1.8q-1.3-1.2 0-2.3c3.8-2.2 2.6-7.2.6-9.4a9 9 0 0 0-8.4 0c-2.7 2.7-3.3 6.8-1.2 9.4 2 1 4.2 3 2.8 4.2-6.4 6.8-23.8 18.5-21.8 19 .4.5 11.2.5 11.5 0zm-93.9 63c-5.8 9.3-6.3 23.2-3 27.3 1.6 2 4.4 2.8 6.5 2.2 3.7-1.6 5.3-9 4.4-11.7q-1.7-3-3.4-.6c-2.6 5.2-3.7 1.6-3.9-1.3-.4-5.5.1-10.7.7-14.7s0-2.9-1.3-1.2"/>
  </g>
</svg>